<svg width="32" height="32" viewBox="0 0 32 32" fill="none" xmlns="http://www.w3.org/2000/svg">
<g clip-path="url(#clip0_284_508)">
<path d="M5.39453 31H15.1797V20.3359H11.6641V16.8203H15.1797V12.4258C15.1797 10.0026 17.151 8.03125 19.5742 8.03125H23.9688V11.5469H20.4531C19.4838 11.5469 18.6953 12.3354 18.6953 13.3047V16.8203H23.8101L23.2242 20.3359H18.6953V31H26.6055C29.0286 31 31 29.0286 31 26.6055V5.39453C31 2.97136 29.0286 1 26.6055 1H5.39453C2.97136 1 1 2.97136 1 5.39453V26.6055C1 29.0286 2.97136 31 5.39453 31ZM2.75781 5.39453C2.75781 3.94067 3.94067 2.75781 5.39453 2.75781H26.6055C28.0593 2.75781 29.2422 3.94067 29.2422 5.39453V26.6055C29.2422 28.0593 28.0593 29.2422 26.6055 29.2422H20.4531V22.0938H24.7133L25.8852 15.0625H20.4531V13.3047H25.7266V6.27344H19.5742C16.1817 6.27344 13.4219 9.03329 13.4219 12.4258V15.0625H9.90625V22.0938H13.4219V29.2422H5.39453C3.94067 29.2422 2.75781 28.0593 2.75781 26.6055V5.39453Z" fill="#1A1A1A"/>
</g>
<rect x="1" y="1" width="30" height="30" stroke="white"/>
<defs>
<clipPath id="clip0_284_508">
<rect x="1" y="1" width="30" height="30" fill="white"/>
</clipPath>
</defs>
</svg>
