<svg width="32" height="32" viewBox="0 0 32 32" fill="none" xmlns="http://www.w3.org/2000/svg">
<g clip-path="url(#clip0_284_510)">
<path d="M5.39453 31H26.6055C29.0286 31 31 29.0286 31 26.6055V5.39453C31 2.97136 29.0286 1 26.6055 1H5.39453C2.97136 1 1 2.97136 1 5.39453V26.6055C1 29.0286 2.97136 31 5.39453 31ZM2.75781 5.39453C2.75781 3.94067 3.94067 2.75781 5.39453 2.75781H26.6055C28.0593 2.75781 29.2422 3.94067 29.2422 5.39453V26.6055C29.2422 28.0593 28.0593 29.2422 26.6055 29.2422H5.39453C3.94067 29.2422 2.75781 28.0593 2.75781 26.6055V5.39453Z" fill="#1A1A1A"/>
<path d="M16 23.9102C20.3616 23.9102 23.9102 20.3616 23.9102 16C23.9102 11.6384 20.3616 8.08984 16 8.08984C11.6384 8.08984 8.08984 11.6384 8.08984 16C8.08984 20.3616 11.6384 23.9102 16 23.9102ZM16 9.84766C19.3925 9.84766 22.1523 12.6075 22.1523 16C22.1523 19.3925 19.3925 22.1523 16 22.1523C12.6075 22.1523 9.84766 19.3925 9.84766 16C9.84766 12.6075 12.6075 9.84766 16 9.84766Z" fill="#1A1A1A"/>
<path d="M24.7891 9.84766C26.2429 9.84766 27.4258 8.66479 27.4258 7.21094C27.4258 5.75708 26.2429 4.57422 24.7891 4.57422C23.3352 4.57422 22.1523 5.75708 22.1523 7.21094C22.1523 8.66479 23.3352 9.84766 24.7891 9.84766ZM24.7891 6.33203C25.2736 6.33203 25.668 6.72639 25.668 7.21094C25.668 7.69548 25.2736 8.08984 24.7891 8.08984C24.3045 8.08984 23.9102 7.69548 23.9102 7.21094C23.9102 6.72639 24.3045 6.33203 24.7891 6.33203Z" fill="#1A1A1A"/>
</g>
<rect x="1" y="1" width="30" height="30" stroke="white"/>
<defs>
<clipPath id="clip0_284_510">
<rect x="1" y="1" width="30" height="30" fill="white"/>
</clipPath>
</defs>
</svg>
