<svg width="50" height="50" viewBox="0 0 50 50" fill="none" xmlns="http://www.w3.org/2000/svg">
<g clip-path="url(#clip0_284_496)">
<path d="M10.6452 35.0247L24.4531 49.7312C24.6136 49.9027 24.8383 50 25.0734 50C25.3085 50 25.5331 49.9027 25.6941 49.7312L39.5011 35.0247C41.6142 32.7739 43.1706 30.3036 44.1267 27.6828C45.1027 25.0515 45.5145 22.2446 45.3355 19.4437C44.9992 14.3261 42.8215 9.50339 39.2052 5.86665C35.4611 2.1107 30.3762 0 25.0729 0C19.77 0 14.6851 2.1107 10.9411 5.86665C7.32474 9.50339 5.14707 14.3261 4.81032 19.4437C4.63126 22.2446 5.04305 25.0515 6.01909 27.6828C6.97565 30.3036 8.53208 32.7739 10.6452 35.0247ZM6.50876 19.5573C6.81796 14.85 8.82085 10.4134 12.1465 7.06829C15.5714 3.63294 20.2226 1.70224 25.0729 1.70224C29.9236 1.70224 34.5749 3.63294 37.9993 7.06829C41.3254 10.4134 43.3278 14.85 43.637 19.5573C43.7999 22.1211 43.4223 24.6906 42.5275 27.0991C41.6507 29.5028 40.215 31.7774 38.26 33.8596L25.0729 47.9059L11.8862 33.8596C9.9313 31.7774 8.49551 29.5028 7.61826 27.0996C6.72392 24.6911 6.34585 22.1211 6.50876 19.5573Z" fill="#1A1A1A"/>
<path d="M25.0714 33.7179C32.8435 33.7179 39.1661 27.2353 39.1661 19.2674C39.1661 11.2996 32.8435 4.81641 25.0714 4.81641C17.2996 4.81641 10.9766 11.2986 10.9766 19.2669C10.9766 27.2348 17.2996 33.7179 25.0714 33.7179ZM25.0714 6.51865C31.905 6.51865 37.4639 12.2376 37.4639 19.2669C37.4639 26.2963 31.905 32.0157 25.0714 32.0157C18.2382 32.0157 12.6788 26.2963 12.6788 19.2669C12.6788 12.2376 18.2382 6.51865 25.0714 6.51865Z" fill="#1A1A1A"/>
<path d="M22.7929 23.5743C23.1196 23.9016 23.6478 23.9073 23.9822 23.5881L31.7406 16.1778C32.0806 15.853 32.093 15.3144 31.7681 14.9743C31.4437 14.6342 30.9046 14.6219 30.565 14.9467L23.4084 21.7823L19.5959 17.9698C19.2635 17.6374 18.7244 17.6374 18.3919 17.9698C18.0595 18.3023 18.0595 18.8414 18.3919 19.1738L22.7929 23.5743Z" fill="#1A1A1A"/>
</g>
<defs>
<clipPath id="clip0_284_496">
<rect width="50" height="50" fill="white"/>
</clipPath>
</defs>
</svg>
