<svg width="35" height="35" viewBox="0 0 35 35" fill="none" xmlns="http://www.w3.org/2000/svg">
<path d="M27.7539 13.4673V10.2539C27.7539 4.59984 23.1541 0 17.5 0C11.8459 0 7.24609 4.59984 7.24609 10.2539V13.4673C5.68771 13.7848 4.51172 15.1659 4.51172 16.8164V26.1816C4.51172 26.5592 4.81773 26.5 5.19531 26.5C5.57289 26.5 5.87891 26.5592 5.87891 26.1816V16.8164C5.87891 15.6855 6.79882 14.7656 7.92969 14.7656H27.0703C28.2012 14.7656 29.1211 15.6855 29.1211 16.8164V31.582C29.1211 32.4731 28.5497 33.2331 27.7539 33.5153C27.7539 33.5153 27.423 33.6328 27.0454 33.6328C26.6678 33.6328 26.4037 33.6328 26.3867 33.6328H7.92969C6.79882 33.6328 5.87891 32.7129 5.87891 31.582V26.1816C5.87891 25.8041 5.57289 25.498 5.19531 25.498C4.81773 25.498 4.51172 25.8041 4.51172 26.1816V31.582C4.51172 33.4667 6.045 35 7.92969 35H27.0703C28.955 35 30.4883 33.4667 30.4883 31.582V16.8164C30.4883 15.1659 29.3123 13.7848 27.7539 13.4673ZM12.3047 13.3984V10.2539C12.3047 7.38922 14.6353 5.05859 17.5 5.05859C20.3647 5.05859 22.6953 7.38922 22.6953 10.2539V13.3984H12.3047ZM24.0625 13.3984V10.2539C24.0625 6.6354 21.1185 3.69141 17.5 3.69141C13.8815 3.69141 10.9375 6.6354 10.9375 10.2539V13.3984H8.61328V10.2539C8.61328 5.35366 12.5998 1.36719 17.5 1.36719C22.4002 1.36719 26.3867 5.35366 26.3867 10.2539V13.3984H24.0625Z" fill="#979797"/>
<path d="M17.501 31.3086C18.6318 31.3086 19.5517 30.3887 19.5517 29.2578V25.6278C20.5787 24.948 21.2012 23.8051 21.2012 22.5527C21.2012 20.5174 19.5451 18.8613 17.5098 18.8613C15.4742 18.8613 13.8184 20.5174 13.8184 22.5527C13.8184 23.796 14.4339 24.9346 15.4502 25.6161V29.2578C15.4502 30.3887 16.3701 31.3086 17.501 31.3086ZM15.1855 22.5527C15.1855 21.271 16.228 20.2285 17.5098 20.2285C18.7912 20.2285 19.834 21.271 19.834 22.5527C19.834 23.4329 19.3453 24.2273 18.5589 24.6265C18.3293 24.7429 18.1845 24.9784 18.1845 25.2361V29.2578C18.1845 29.6349 17.878 29.9414 17.501 29.9414C17.1239 29.9414 16.8174 29.6349 16.8174 29.2578V25.227C16.8174 24.9712 16.6745 24.7368 16.447 24.6195C15.6689 24.2185 15.1855 23.4265 15.1855 22.5527Z" fill="#979797"/>
</svg>
