<svg width="50" height="50" viewBox="0 0 50 50" fill="none" xmlns="http://www.w3.org/2000/svg">
<g clip-path="url(#clip0_284_502)">
<path d="M35.463 0H14.4782C12.0666 0.00261891 10.112 1.9572 10.1094 4.36921V45.631C10.112 48.043 12.0666 49.9971 14.4782 50.0002H35.463C37.875 49.9971 39.8296 48.043 39.8322 45.631V4.36878C39.8292 1.9572 37.875 0.00261891 35.463 0V0ZM11.6737 8.28535H38.2679V38.9973H11.6737V8.28535ZM14.4782 1.56436H35.463C37.0112 1.56611 38.2661 2.82056 38.2679 4.36921V6.72099H11.6737V4.36878C11.6755 2.82056 12.9299 1.56611 14.4782 1.56436ZM35.463 48.4354H14.4782C12.9299 48.4337 11.6755 47.1792 11.6737 45.631V40.5616H38.2679V45.631C38.2661 47.1792 37.0112 48.4337 35.463 48.4354Z" fill="#1A1A1A"/>
<path d="M28.1351 43.75H21.8056C21.3735 43.75 21.0234 44.1005 21.0234 44.5322C21.0234 44.9643 21.3735 45.3144 21.8056 45.3144H28.1351C28.5672 45.3144 28.9173 44.9643 28.9173 44.5322C28.9173 44.1005 28.5672 43.75 28.1351 43.75Z" fill="#1A1A1A"/>
<path d="M26.7492 23.0991L24.1609 25.2047L23.291 24.1864C23.0108 23.8577 22.5171 23.8188 22.1884 24.0995C21.8597 24.3802 21.8209 24.8738 22.1016 25.2025L23.4673 26.8018C23.7432 27.1248 24.2264 27.1684 24.5559 26.9004L27.7366 24.3129C27.9544 24.1366 28.0618 23.8577 28.0177 23.581C27.9736 23.3042 27.785 23.072 27.5227 22.9729C27.2608 22.8734 26.9657 22.9214 26.7492 23.0991Z" fill="#1A1A1A"/>
<path d="M24.9709 18.0723C21.1446 18.0723 18.043 21.1739 18.043 25.0002C18.043 28.8264 21.1446 31.928 24.9709 31.928C28.7971 31.928 31.8987 28.8264 31.8987 25.0002C31.8944 21.1757 28.7953 18.0766 24.9709 18.0723ZM24.9709 30.3637C22.0084 30.3637 19.6073 27.9621 19.6073 25.0002C19.6073 22.0377 22.0084 19.6366 24.9709 19.6366C27.9328 19.6366 30.3344 22.0377 30.3344 25.0002C30.3309 27.9608 27.9315 30.3602 24.9709 30.3637Z" fill="#1A1A1A"/>
</g>
<defs>
<clipPath id="clip0_284_502">
<rect width="50" height="50" fill="white"/>
</clipPath>
</defs>
</svg>
